# xmcd
#
# Track frame offsets:
#	150
#	12833
#	29126
#	44204
#	54649
#	69540
#	88068
#	97122
#	111417
#	131337
#	144310
#	159084
#	172512
#	185644
#
# Disc length: 2557 seconds
#
# Revision: 1
# Processed by: cddbd v1.4PL0 Copyright (c) Steve Scherf et al.
# Submitted via: audiograbber 1.80
#
DISCID=c109fb0e
DTITLE=Bauernfänger - Bauernfänger
DYEAR=1900
DGENRE=
TTITLE0=Caravan
TTITLE1=Moonglow
TTITLE2=Sunny Side of the Street
TTITLE3=How High the Moon
TTITLE4=Come Get Together
TTITLE5=Sonnenklar
TTITLE6=Tango
TTITLE7=Jamaica Farewell
TTITLE8=Besame Mucho
TTITLE9=Puerto Rico
TTITLE10=Mais la Vie
TTITLE11=The Shadow of Your Smile
TTITLE12=My Funny Valentine
TTITLE13=Jodler
EXTD=
EXTT0=
EXTT1=
EXTT2=
EXTT3=
EXTT4=
EXTT5=
EXTT6=
EXTT7=
EXTT8=
EXTT9=
EXTT10=
EXTT11=
EXTT12=
EXTT13=
PLAYORDER=
